<?xml version="1.0" encoding="utf-8"?>
<!-- Generator: Adobe Illustrator 27.1.1, SVG Export Plug-In . SVG Version: 6.00 Build 0)  -->
<svg version="1.1" id="bottom_x5F_plate" xmlns="http://www.w3.org/2000/svg" xmlns:xlink="http://www.w3.org/1999/xlink" x="0px"
	 y="0px" width="1440px" height="864px" viewBox="0 0 1440 864" style="enable-background:new 0 0 1440 864;" xml:space="preserve">
<style type="text/css">
	.st0{fill:none;stroke:#0000FF;stroke-width:0.7087;stroke-linecap:round;stroke-linejoin:round;stroke-miterlimit:10;}
</style>
<g>
	<path class="st0" d="M570.3,396.8c-1.2,0-2.1,0.9-2.1,2.1c0,1.2,0.9,2.1,2.1,2.1c1.2,0,2.1-0.9,2.1-2.1
		C572.4,397.7,571.5,396.8,570.3,396.8z M789.3,558.8c-1.2,0-2.1,0.9-2.1,2.1c0,1.2,0.9,2.1,2.1,2.1c1.2,0,2.1-0.9,2.1-2.1
		C791.4,559.7,790.5,558.8,789.3,558.8z M694.8,302.3c-1.2,0-2.1,0.9-2.1,2.1c0,1.2,0.9,2.1,2.1,2.1c1.2,0,2.1-0.9,2.1-2.1
		C696.9,303.2,696,302.3,694.8,302.3z M640.8,579.6c-1.2,0-2.1,0.9-2.1,2.1c0,1.2,0.9,2.1,2.1,2.1c1.2,0,2.1-0.9,2.1-2.1
		C642.9,580.5,642,579.6,640.8,579.6z"/>
	<path class="st0" d="M824.4,258.7H603.8v39.6c0,2.2,1.7,3.9,3.9,3.9h4.2c4.2,0,7.6-3.4,7.6-7.6v-11.2c0-3.8,3-6.8,6.8-6.8h46.9
		c3.8,0,6.8,3,6.8,6.8v20.7c0,8.1,6.6,14.6,14.6,14.6h1.3c6.8,0,12.6-4.5,14.7-10.9c1.1-3.3,4.2-5.7,7.9-5.7h9
		c4.2,0,7.6-3.4,7.6-7.6v-11.2c0-3.8,3-6.8,6.8-6.8h78.2v-9h4.2c8.4,0,15.2,6.8,15.2,15.2v4.2h-9v91.7c0,3.8-3,6.8-6.8,6.8h-11.2
		c-4.2,0-7.6,3.4-7.6,7.6v10.4c0,4.2,3.4,7.6,7.6,7.6h11.1c3.8,0,6.8,3,6.8,6.8v69.1c0,3.8-3,6.8-6.8,6.8h-11.2
		c-4.2,0-7.6,3.4-7.6,7.6v10.4c0,4.2,3.4,7.6,7.6,7.6h11.2c3.8,0,6.8,3,6.8,6.8v8.1c0,3.8-3,6.8-6.8,6.8h-34.4
		c-11,0-19.9,8.9-19.9,19.9v47.8c0,3.8-3,6.8-6.8,6.8h-20.8c-3.8,0-6.8-3-6.8-6.8v-11.2c0-4.2-3.4-7.6-7.6-7.6h-10.4
		c-4.2,0-7.6,3.4-7.6,7.6v11.1c0,3.8-3,6.8-6.8,6.8h-33.2c-3.8,0-6.8-3-6.8-6.8v-26.8c0-11.9-9.5-22-21.4-22.2
		c-6.1-0.1-11.6,2.4-15.6,6.3c-3.9,3.9-6.4,9.3-6.4,15.3v1c0,4.2-3.4,7.6-7.6,7.6h-10.4c-4.2,0-7.6,3.4-7.6,7.6v11.2
		c0,3.8-3,6.8-6.8,6.8h-20.1c-3.4,0-6.4-2.5-7-5.9c-0.1-0.4-0.1-0.8-0.2-1.1c-2.4-9.2-9.1-16.5-17.9-19.8c-0.9-0.3-2.4-0.6-3.9-0.9
		c-3.4-0.6-5.8-3.5-5.8-7v-54.7c0-3.8,3-6.8,6.8-6.8h11.2c4.2,0,7.6-3.4,7.6-7.6v-10.4c0-4.2-3.4-7.6-7.6-7.6h-11.2
		c-3.8,0-6.8-3-6.8-6.8v-69.1c0-3.8,3-6.8,6.8-6.8h29.3c6.9,0,12.4-5.6,12.4-12.4v-1.4c0-5.2-4.2-9.4-9.4-9.4h-32.4
		c-3.8,0-6.8-3-6.8-6.8v-94h-9V283c0-8.4,6.8-15.2,15.2-15.2h4.2v9h4.5v-18H538c-13.4,0-24.2,10.9-24.2,24.2v326.3
		c0,13.4,10.9,24.2,24.2,24.2h285.9c13.4,0,24.2-10.9,24.2-24.2V283C848.6,269.6,837.8,258.7,824.4,258.7z M694.8,306.5
		c-1.2,0-2.1-0.9-2.1-2.1c0-1.2,0.9-2.1,2.1-2.1c1.2,0,2.1,0.9,2.1,2.1C696.9,305.6,696,306.5,694.8,306.5z M570.3,396.8
		c1.2,0,2.1,0.9,2.1,2.1c0,1.2-0.9,2.1-2.1,2.1c-1.2,0-2.1-0.9-2.1-2.1C568.2,397.7,569.1,396.8,570.3,396.8z M640.8,583.8
		c-1.2,0-2.1-0.9-2.1-2.1c0-1.2,0.9-2.1,2.1-2.1c1.2,0,2.1,0.9,2.1,2.1C642.9,582.9,642,583.8,640.8,583.8z M789.3,563
		c-1.2,0-2.1-0.9-2.1-2.1c0-1.2,0.9-2.1,2.1-2.1c1.2,0,2.1,0.9,2.1,2.1C791.4,562.1,790.5,563,789.3,563z M839.6,609.3
		c0,8.4-6.8,15.2-15.2,15.2h-4.2v-9.4c0.3-5.6,4.9-9.9,10.4-10.1h9V609.3z"/>
	<path class="st0" d="M642.9,581.7c0,1.2-0.9,2.1-2.1,2.1c-1.2,0-2.1-0.9-2.1-2.1c0-1.2,0.9-2.1,2.1-2.1
		C642,579.6,642.9,580.5,642.9,581.7z"/>
	<path class="st0" d="M791.4,560.9c0,1.2-0.9,2.1-2.1,2.1c-1.2,0-2.1-0.9-2.1-2.1c0-1.2,0.9-2.1,2.1-2.1
		C790.5,558.8,791.4,559.7,791.4,560.9z"/>
	<path class="st0" d="M696.9,304.4c0,1.2-0.9,2.1-2.1,2.1c-1.2,0-2.1-0.9-2.1-2.1c0-1.2,0.9-2.1,2.1-2.1
		C696,302.3,696.9,303.2,696.9,304.4z"/>
	<path class="st0" d="M572.4,398.9c0,1.2-0.9,2.1-2.1,2.1c-1.2,0-2.1-0.9-2.1-2.1c0-1.2,0.9-2.1,2.1-2.1
		C571.5,396.8,572.4,397.7,572.4,398.9z"/>
</g>
<path class="st0" d="M538,624.5c-8.4,0-15.2-6.8-15.2-15.2v-4.2h9h0.4c5.6,0.3,9.9,4.9,10.1,10.4v9H538z"/>
</svg>
