<?xml version="1.0" encoding="utf-8"?>
<!-- Generator: Adobe Illustrator 27.0.1, SVG Export Plug-In . SVG Version: 6.00 Build 0)  -->
<svg version="1.1" id="bottom_x5F_plate" xmlns="http://www.w3.org/2000/svg" xmlns:xlink="http://www.w3.org/1999/xlink" x="0px"
	 y="0px" width="1440px" height="864px" viewBox="0 0 1440 864" style="enable-background:new 0 0 1440 864;" xml:space="preserve">
<style type="text/css">
	.st0{fill:none;stroke:#0000FF;stroke-width:0.7087;stroke-linecap:round;stroke-linejoin:round;stroke-miterlimit:10;}
	.st1{fill:none;stroke:#FF0000;stroke-width:0.7087;stroke-linecap:round;stroke-linejoin:round;stroke-miterlimit:10;}
	.st2{fill:none;stroke:#00FF00;stroke-width:0.7087;stroke-linecap:round;stroke-linejoin:round;stroke-miterlimit:10;}
	.st3{fill:none;stroke:#009245;stroke-width:0.7087;stroke-linecap:round;stroke-linejoin:round;stroke-miterlimit:10;}
</style>
<path class="st0" d="M69.5,44.7v9h-4.2c-3.5,0-6.3,2.8-6.3,6.2v4.2h-9V60c0-8.4,6.8-15.2,15.3-15.2H69.5z"/>
<path class="st0" d="M69.5,392.5v9h-4.2c-8.4,0-15.3-6.8-15.3-15.2v-4.2h9v4.2c0,3.4,2.8,6.2,6.3,6.2H69.5z"/>
<path class="st0" d="M366.5,60v4.2h-9V60c0-3.4-2.8-6.2-6.2-6.2H347v-9h4.2C359.6,44.7,366.5,51.6,366.5,60z"/>
<path class="st0" d="M366.5,382.1v4.2c0,8.4-6.8,15.2-15.2,15.2H347v-9h4.2c3.5,0,6.2-2.8,6.2-6.2v-4.2H366.5z"/>
<circle class="st1" cx="194.9" cy="482.5" r="8.5"/>
<circle class="st1" cx="302.7" cy="482.5" r="8.5"/>
<circle class="st1" cx="319.4" cy="577" r="8.5"/>
<circle class="st1" cx="319.4" cy="685" r="8.5"/>
<circle class="st1" cx="248.9" cy="759.7" r="8.5"/>
<circle class="st1" cx="100.3" cy="739" r="8.5"/>
<path class="st0" d="M65.3,811.7c-13.4,0-24.2-10.9-24.2-24.2V461.1c0-13.4,10.9-24.2,24.2-24.2h285.9c13.4,0,24.2,10.9,24.2,24.2
	v326.3c0,13.4-10.9,24.2-24.2,24.2H65.3z"/>
<path class="st0" d="M69.5,445.9v9h-4.2c-3.5,0-6.2,2.8-6.2,6.2v4.2h-9v-4.2c0-8.4,6.8-15.2,15.2-15.2H69.5z"/>
<path class="st0" d="M69.5,793.6v9h-4.2c-8.4,0-15.2-6.8-15.2-15.2v-4.2h9v4.2c0,3.4,2.8,6.2,6.2,6.2H69.5z"/>
<path class="st0" d="M366.5,461.1v4.2h-9v-4.2c0-3.4-2.8-6.2-6.2-6.2H347v-9h4.2C359.6,445.9,366.5,452.7,366.5,461.1z"/>
<path class="st0" d="M366.5,783.2v4.2c0,8.4-6.8,15.2-15.2,15.2H347v-9h4.2c3.5,0,6.2-2.8,6.2-6.2v-4.2H366.5z"/>
<path class="st0" d="M65.3,793.7c-3.4,0-6.2-2.8-6.2-6.2V461.1c0-3.4,2.8-6.2,6.2-6.2h285.9c3.4,0,6.2,2.8,6.2,6.2v326.3
	c0,3.4-2.8,6.2-6.2,6.2H65.3z"/>
<path class="st2" d="M65.3,454.9h25.9c5.7,0,10.3,4.6,10.3,10.3v18.1c0,7.8-6.3,14.1-14.1,14.1H69.4c-5.7,0-10.3-4.6-10.3-10.3
	v-25.9C59,457.7,61.8,454.9,65.3,454.9z"/>
<path class="st2" d="M69.4,751.1h18.1c7.8,0,14.1,6.3,14.1,14.1v18.1c0,5.7-4.6,10.3-10.3,10.3H65.3c-3.5,0-6.2-2.8-6.2-6.2v-25.9
	C59,755.8,63.7,751.1,69.4,751.1z"/>
<path class="st2" d="M357.5,461.1V487c0,5.7-4.6,10.3-10.3,10.3h-18.1c-7.8,0-14.1-6.3-14.1-14.1v-18.1c0-5.7,4.6-10.3,10.3-10.3
	h25.9C354.7,454.9,357.5,457.7,357.5,461.1z"/>
<path class="st2" d="M329.1,751.1h18.1c5.7,0,10.3,4.6,10.3,10.3v25.9c0,3.5-2.8,6.2-6.2,6.2h-25.9c-5.7,0-10.3-4.6-10.3-10.3v-18.1
	C315,757.4,321.3,751.1,329.1,751.1z"/>
<path class="st3" d="M66,410.5c-13.4,0-24.2-10.9-24.2-24.2V60c0-13.4,10.9-24.2,24.2-24.2H352c13.4,0,24.2,10.9,24.2,24.2v326.3
	c0,13.4-10.9,24.2-24.2,24.2H66z"/>
<path class="st3" d="M65.3,392.5c-3.4,0-6.2-2.8-6.2-6.2V60c0-3.4,2.8-6.2,6.2-6.2h285.9c3.4,0,6.2,2.8,6.2,6.2v326.3
	c0,3.4-2.8,6.2-6.2,6.2H65.3z"/>
<rect x="73.8" y="25.3" class="st0" width="56.9" height="38.8"/>
<circle class="st1" cx="97.1" cy="577" r="8.5"/>
</svg>
